<?xml version="1.0" standalone="no"?><!DOCTYPE svg PUBLIC "-//W3C//DTD SVG 1.1//EN" "http://www.w3.org/Graphics/SVG/1.1/DTD/svg11.dtd"><svg t="1706014210244" class="icon" viewBox="0 0 1024 1024" version="1.1" xmlns="http://www.w3.org/2000/svg" p-id="34632" width="32" height="32" xmlns:xlink="http://www.w3.org/1999/xlink"><path d="M636.7744 357.12c-64.3072-41.3184-86.0672-88.32-86.2208-88.7296a20.5312 20.5312 0 0 0-18.7392-12.2368h-36.8128c-6.5024 0-12.6464 3.1232-16.5376 8.3456-0.512 0.7168-53.9648 73.1136-100.608 101.1712-38.2464 22.9376-109.4144 65.6384-59.2384 152.2176 34.56 59.5456 40.2944 86.1696 39.1168 117.1456-1.536 41.7792 22.272 98.2528 50.944 120.8832 4.9152 3.8912 9.3696 9.1648 14.5408 15.2064 15.616 18.4832 37.0176 43.7248 88.7296 43.7248 54.528 0 76.6464-31.3856 88.576-48.2816 2.1504-3.072 5.1712-7.3216 6.4-8.3968 0.8704-0.7168 1.8432-1.4848 2.9184-2.304 17.7152-13.8752 59.1872-46.3872 56.5248-134.7072-1.3824-46.4896 11.6224-64.7168 25.4464-83.968 8.96-12.4928 18.2272-25.4464 22.3232-44.288 12.3392-56.3712-7.168-90.624-77.3632-135.7824z m37.376 127.0784c-2.304 10.5984-8.192 18.7904-15.616 29.184-15.5648 21.7088-34.9184 48.7424-33.0752 109.056 2.048 67.6352-25.856 89.4976-40.8576 101.2224-1.3312 1.024-2.5088 1.9968-3.584 2.8672-5.5296 4.5056-9.6256 10.3424-13.9776 16.4864-10.7008 15.2064-21.8112 30.9248-55.0912 30.9248-32.7168 0-43.6224-12.9024-57.4464-29.2352-6.0416-7.1168-12.2368-14.4896-20.4288-20.9408-18.5856-14.6944-36.4544-58.6752-35.3792-87.2448 1.4336-37.9392-5.2736-71.3728-44.6464-139.2128-25.4464-43.8272-10.3424-63.3856 44.8512-96.512 43.8784-26.3168 89.7024-82.3808 106.24-103.68h14.3872c11.5712 19.5072 39.8848 58.9824 95.0784 94.464 66.56 42.8032 65.9968 63.0784 59.5456 92.6208z" fill="#7B6BF2" p-id="34633"></path><path d="M476.16 462.5408c0.8704-1.0752 0.8704-2.6624 0.1536-3.7888-28.416-43.008-78.5408-17.0496-91.648-9.1648a3.1744 3.1744 0 0 0-0.7168 4.864c26.0096 28.16 69.5296 36.9664 92.2112 8.0896zM635.1872 449.5872c-13.1072-7.8848-63.232-33.8432-91.648 9.1648-0.768 1.1264-0.7168 2.7136 0.1536 3.7888 22.6816 28.8256 66.2016 20.0704 92.2624-8.0896 1.3312-1.4848 0.9728-3.84-0.768-4.864zM579.1744 636.7744c-11.0592-5.9392-31.8976-13.3632-67.2256-13.3632-35.1232 0-55.2448 7.3216-65.792 13.2608-5.5808 3.1232-6.5536 10.752-2.0992 15.3088l53.504 54.4768a9.728 9.728 0 0 1-0.5632 14.1824l-6.8096 5.9392c-6.8096 5.9392-2.6112 17.1008 6.4 17.1008h29.5936c8.6528 0 13.0048-10.4448 6.912-16.5888l-6.2976-6.3488c-3.7888-3.7888-3.7376-9.9328 0-13.7216l54.528-54.784c4.6592-4.608 3.584-12.3904-2.1504-15.4624z" fill="#7B6BF2" p-id="34634"></path><path d="M970.24 260.8128c0.768-0.1024 1.536-0.1536 2.304-0.256 10.9056-1.024 19.5584-9.3696 20.992-20.224 1.4336-10.9056-4.7616-21.1456-15.0016-24.9856-15.7696-5.888-33.4336-10.8032-53.1456-11.776-41.6256-39.8848-91.4432-59.8016-144.2304-57.8048-82.176 3.2256-136.7552 24.5248-172.4416 48.2816-0.3584-0.0512-0.6656-0.1536-1.024-0.2048-41.7792-3.8912-79.6672 7.2704-93.8496 12.1344-13.7216-4.7616-49.664-15.36-89.9072-12.4928-1.8944 0.1536-3.6352 0.6144-5.3248 1.1776-35.6864-24.064-90.4704-45.7216-173.4144-48.9472-52.992-2.048-102.6048 17.92-144.2304 57.8048-19.712 0.9216-37.376 5.888-53.1456 11.776a23.3216 23.3216 0 0 0-15.0528 24.9856 23.26016 23.26016 0 0 0 20.992 20.224c0.768 0.0512 1.5872 0.1536 2.3552 0.256-22.784 38.912-35.7376 82.8928-34.9184 122.8288 1.4848 71.3728 24.3712 130.816 62.8736 163.1232 23.4496 19.712 51.7632 29.5936 84.4288 29.5936 8.7552 0 17.8176-0.7168 27.1872-2.1504-13.312 57.1392 8.3968 105.2672 40.6016 125.184 3.0208 65.6896 29.7984 106.0352 79.7184 120.2176 31.3344 58.7776 75.3152 63.3856 107.6736 63.744 13.056 10.8544 43.6224 31.4368 88.3712 31.4368 45.2096 0 78.0288-21.0432 91.4944-31.4368 32.4096-0.3072 76.6976-4.6592 108.1856-63.744 49.92-14.1824 76.6976-54.5792 79.7184-120.2176 32.1536-19.9168 53.8624-67.9936 40.6016-125.0304 8.8576 1.28 17.5104 1.9968 25.856 1.9968 32.6144 0 60.928-9.9328 84.4288-29.6448 38.5024-32.3072 61.44-91.7504 62.8736-163.1232 0.768-39.8336-12.1856-83.7632-34.9696-122.7264z m-187.4944-74.0864c35.584-1.3824 65.024 10.2912 87.6032 25.1392-29.9008 10.4448-63.2832 31.8464-100.352 70.656-0.1536 0.2048-0.3584 0.3584-0.512 0.5632-1.2288 1.3824-2.4064 2.7648-3.584 4.1984-15.1552 5.9904-32.0512 15.872-55.0912 32.1536-37.888-10.9568-75.1616-53.1456-94.5664-79.872 37.4272-31.4368 95.744-50.0736 166.5024-52.8384z m-539.1872 0c70.7584 2.7648 129.0752 21.4016 166.5536 52.8384-19.3536 26.7264-56.576 68.9152-94.5664 79.872-21.248-15.0016-36.7616-24.2688-50.9952-30.464-1.2288-0.512-2.4576-0.9216-3.7376-1.2288-1.28-1.6384-2.6112-3.1744-3.9936-4.7104-0.1536-0.2048-0.3584-0.3584-0.512-0.5632-37.0688-38.8096-70.4512-60.2112-100.352-70.656 22.5792-14.7968 52.0704-26.4192 87.6032-25.088z m-133.1712 328.704c-29.44-24.7296-47.0528-73.0624-48.2816-132.608-0.7168-34.9184 12.3392-75.0592 34.4064-109.5168 20.1728 10.6496 38.4 27.8016 55.1424 51.6608-7.7824 10.3424-15.7184 22.784-24.1152 37.7856-0.256 0.4096-0.4608 0.8704-0.6656 1.28-6.912 14.6432-15.9744 52.992 0.0512 78.1312 8.448 13.2608 22.4256 20.5312 39.3216 20.5312h0.1536c17.5616-0.0512 32.6656-9.472 41.472-25.9072 17.152-32.1536 9.1136-87.9104-18.7392-129.6896-16.896-25.3952-35.84-45.3632-56.7296-59.8016 25.6 6.5536 56.7808 24.1664 94.0544 63.1296 33.024 37.4784 44.7488 113.8176 25.6512 166.8608-11.8272 32.8192-32.768 51.7632-62.2592 56.32-32.3072 5.12-59.0336-1.024-79.4624-18.176z m53.248-133.376c2.8672-5.0688 5.632-9.7792 8.3456-14.1312 5.4272 20.4288 5.12 39.4752-0.3072 49.6128-2.304 4.3008-4.1984 4.096-5.4784 4.2496-3.7888 0-4.352-0.9216-4.7616-1.5872-4.7104-7.424-1.9968-28.6208 2.2016-38.144z m600.7808 285.184a20.51584 20.51584 0 0 0-13.7728 19.3536c0 58.6752-17.1008 87.2448-57.2416 95.4368a20.4032 20.4032 0 0 0-14.4384 11.3664c-22.9888 49.1008-50.7904 49.1008-82.9952 49.1008-5.2736 0-10.3424 2.048-14.1824 5.6832-0.256 0.256-28.0576 25.7024-69.9392 25.7024-41.0624 0-64.512-23.9616-65.3824-24.8832a20.4288 20.4288 0 0 0-15.0016-6.5536c-32.2048 0-60.0064 0-82.9952-49.1008a20.3776 20.3776 0 0 0-14.4384-11.3664c-40.0896-8.192-57.2416-36.7104-57.2416-95.4368 0-8.704-5.5296-16.4864-13.7728-19.3536-16.4864-5.7344-41.728-39.8336-25.2416-92.5696 1.536-4.9664 1.0752-10.24-1.1264-14.848 24.1152-14.2336 42.7008-37.5808 53.8624-68.5056 15.104-41.9328 15.2064-92.928 2.816-137.2672 1.792 1.28 3.6864 2.6112 5.5808 3.9936 4.4544 3.2256 10.0352 4.5056 15.4112 3.6352 76.1856-12.8512 137.216-110.1312 139.776-114.2272 2.3552-3.7888 3.2768-8.0384 2.9696-12.2368 26.624 2.9696 46.592 10.8032 47.104 11.008 2.5088 1.024 5.12 1.4848 7.68 1.4848 0.6144 0 1.2288-0.1024 1.8432-0.1536 0.6144 0.0512 1.2288 0.1536 1.8432 0.1536 2.56 0 5.1712-0.4608 7.7312-1.536 0.256-0.1024 19.5584-7.7824 45.7216-10.8544-0.256 4.1472 0.6656 8.3968 2.9696 12.1344 2.56 4.1472 63.5904 101.376 139.7248 114.2272 5.4272 0.9216 10.9568-0.4096 15.4112-3.6352 1.8944-1.3824 3.7888-2.7136 5.5808-4.0448-12.3904 44.3392-12.288 95.3344 2.816 137.2672 11.3152 31.3856 30.208 54.9376 54.8352 69.12-1.9456 4.4544-2.304 9.5232-0.8192 14.2848 16.6912 52.7872-8.5504 86.8864-25.088 92.6208z m151.5008-151.808c-20.4288 17.152-47.1552 23.296-79.4624 18.2784-29.4912-4.5568-50.432-23.5008-62.2592-56.32-19.0976-53.0944-7.3728-129.3824 25.6512-166.8608 37.3248-38.9632 68.4544-56.576 94.0544-63.1296-20.8384 14.4896-39.7824 34.4064-56.7296 59.8016-27.8528 41.7792-35.8912 97.536-18.7392 129.6896 8.7552 16.4352 23.8592 25.856 41.472 25.9072h0.1536c16.9472 0 30.9248-7.2704 39.3216-20.5312 15.9744-25.1392 6.912-63.488 0.0512-78.1312-0.2048-0.4096-0.4096-0.8704-0.6656-1.28-8.3968-14.9504-16.3328-27.4432-24.1152-37.7856 16.6912-23.8592 34.9696-41.0112 55.1424-51.6608 22.016 34.4576 35.1232 74.5984 34.4064 109.5168-1.2288 59.4432-18.8416 107.776-48.2816 132.5056z m-51.0464-95.232c-0.4096 0.6656-1.024 1.5872-4.7616 1.5872-1.536-0.1536-3.1744 0.0512-5.4784-4.2496-5.4272-10.1376-5.6832-29.184-0.3072-49.6128 2.7136 4.352 5.4784 9.0624 8.2944 14.1312 4.1984 9.5232 6.9632 30.72 2.2528 38.144z" fill="#7B6BF2" p-id="34635"></path></svg>