<?xml version="1.0" standalone="no"?><!DOCTYPE svg PUBLIC "-//W3C//DTD SVG 1.1//EN" "http://www.w3.org/Graphics/SVG/1.1/DTD/svg11.dtd"><svg t="1706012558117" class="icon" viewBox="0 0 1024 1024" version="1.1" xmlns="http://www.w3.org/2000/svg" p-id="20506" width="32" height="32" xmlns:xlink="http://www.w3.org/1999/xlink"><path d="M512 512m-512 0a512 512 0 1 0 1024 0 512 512 0 1 0-1024 0Z" fill="#FF914E" p-id="20507"></path><path d="M625.408 321.536a135.168 135.168 0 0 0-121.856 76.8A134.4 134.4 0 1 0 301.568 563.2a23.552 23.552 0 1 0 28.16-37.632 87.296 87.296 0 0 1 51.2-157.184 87.552 87.552 0 0 1 87.296 88.32l11.008 261.888a23.552 23.552 0 0 0 46.848 0L537.6 455.936a87.296 87.296 0 1 1 139.52 69.888 23.552 23.552 0 1 0 28.672 37.376 134.4 134.4 0 0 0-80.384-241.92z" fill="#FFFFFF" p-id="20508"></path></svg>