<?xml version="1.0" standalone="no"?><!DOCTYPE svg PUBLIC "-//W3C//DTD SVG 1.1//EN" "http://www.w3.org/Graphics/SVG/1.1/DTD/svg11.dtd"><svg t="1706014278994" class="icon" viewBox="0 0 1024 1024" version="1.1" xmlns="http://www.w3.org/2000/svg" p-id="40606" width="32" height="32" xmlns:xlink="http://www.w3.org/1999/xlink"><path d="M803.3792 158.1056c-16.7424-18.0736-166.5024-171.4688-334.6432-85.1456-17.3568-5.2736-56.3712-13.9776-104.4992-4.9152-58.1632 10.9056-141.5168 50.7904-208.1792 178.7392-54.7328 105.0624-64.6656 210.176-29.4912 312.4224 31.8464 92.6208 91.0848 150.272 102.656 160.8704 1.1776 1.0752 2.3552 2.1504 3.4304 3.2256-22.4768 3.072-52.5824 10.5984-72.9088 36.4032-18.3296 23.296-24.6784 55.6544-19.4048 98.9696 5.376 44.3904 30.9248 80.8448 71.936 102.7072 24.4224 13.0048 51.9168 19.5584 79.4112 19.5584 26.3168 0 52.6336-5.9904 76.1856-17.9712 55.296-28.1088 95.3344-77.7216 104.3968-129.4848 2.1504-12.1856 2.5088-24.2688 1.2288-36.096 10.9056 4.9152 22.1184 8.2944 32.3072 8.2944 7.2192 0 16.7424-0.6656 27.6992-2.8672-7.8336 17.152-12.7488 35.1232-13.4144 53.8112-2.2016 62.1056 27.5456 99.1232 83.7632 104.2432 25.088 2.304 49.152-4.608 64.3072-18.4832 10.3936-9.472 16.128-21.9648 16.128-35.1232 0-11.3152-9.1648-20.48-20.48-20.48-1.1264 0-4.4544-1.6384-7.3728-6.7072-3.3792-5.8368-5.2736-14.6432-4.2496-25.856 10.1376 15.6672 23.0912 28.8768 38.1952 38.5536 31.0784 19.9168 70.656 24.7296 114.4832 13.9264 0.4096-0.1024 0.8704-0.2048 1.28-0.3584 27.8528-8.8064 49.408-27.8528 60.7232-53.6064 14.2848-32.4096 11.52-73.1648-7.7824-114.688a20.48512 20.48512 0 0 0-16.6912-11.776c-7.2704-0.7168-14.336 2.56-18.5856 8.4992-12.6464 17.7152-23.9616 24.2688-29.7984 24.4736-1.3312 0-5.2736 0.2048-11.6224-7.3216-3.7888-4.5056-3.9936-7.424-3.6864-9.728 1.28-10.3936 14.5408-24.7808 39.424-42.9056 17.2544-12.544 90.0608-88.8832 104.6016-207.616 13.568-110.848-26.368-222.9248-118.784-332.9536a3.456 3.456 0 0 1-0.5632-0.6144zM505.856 764.8256c-11.8784 0-38.9632-16.5376-58.1632-32.4608-1.9456-2.6624-3.9936-5.3248-6.144-7.936-0.256-0.3584-0.5632-0.6656-0.8192-1.024-2.2016-2.6624-4.5056-5.2736-6.912-7.8336-12.3904-13.2096-23.6544-24.8832-33.5872-35.1232-35.6864-36.9152-55.552-57.5488-68.5056-86.9376 42.0352 12.544 105.8816 12.0832 177.5104-56.2176a20.47488 20.47488 0 0 0 1.536-28.0064c-21.6576-25.8048-32.3072-53.8624-29.952-79.0016 2.048-21.76 13.6704-41.472 34.6112-58.624 39.3728-32.256 62.464-57.1392 74.496-71.6288 6.912 3.3792 15.9744 8.0384 26.1632 13.9776a379.23328 379.23328 0 0 1 27.0848 17.408c39.424 28.0064 81.664 70.912 82.2272 126.208 1.4336 137.3184-71.3216 210.176-93.6448 229.2736-15.4624 13.2096-31.6928 27.8528-46.7968 43.776-31.5904 29.6448-63.0272 34.1504-79.104 34.1504z m376.2688-277.9648c-12.8512 104.704-76.0832 170.8032-88.0128 179.456-24.1664 17.5616-52.3776 41.5232-55.9616 71.0656-1.792 14.592 2.7136 28.8256 13.0048 41.0624 15.872 18.8928 32.9728 22.3744 44.5952 21.9136 13.824-0.5632 26.1632-6.6048 36.7104-14.848 4.2496 19.1488 3.328 36.608-2.9696 50.8928-6.5536 14.848-18.6368 25.4976-35.0208 30.8736-32.8192 7.936-60.3648 5.0176-81.8688-8.8064-29.6448-18.9952-38.656-51.8144-41.216-65.0752a20.4288 20.4288 0 0 0-16.6912-16.3328c-8.448-1.4848-16.8448 2.5088-21.1456 9.8816-35.3792 60.8256-20.5824 99.7888-12.5952 113.7152 3.584 6.2464 7.9872 11.5712 13.0048 15.8208-6.4512 2.8672-15.6672 4.7616-26.368 3.7888-25.2416-2.304-48.384-11.4176-46.5408-62.0032 1.2288-34.7136 25.3952-69.376 53.4528-98.9696 0.1024-0.1024 0.1536-0.1536 0.256-0.2048 0.2048-0.2048 0.4608-0.4096 0.6656-0.6656 12.032-12.5952 26.0608-25.7536 43.008-40.192 4.3008-3.6864 8.4992-7.4752 12.544-11.4688 61.0304-59.4432 96.4608-151.2448 95.4368-249.3952-1.3824-130.6112-168.0896-198.7584-175.1552-201.6256-9.0624-3.6352-19.456-0.256-24.7808 7.8848-0.2048 0.3072-19.5584 29.3888-76.9536 76.4416-29.2864 24.0128-46.3872 53.9648-49.4592 86.528-2.8672 30.6176 6.7584 63.1808 27.2896 93.2352-75.9296 63.0784-134.4512 34.56-156.8768 18.5856a20.49024 20.49024 0 1 0-31.9488 20.9408c14.7456 69.4784 40.6528 96.256 92.2112 149.6576 2.4576 2.56 5.0176 5.1712 7.6288 7.8848 2.9184 3.0208 5.9904 6.1952 9.1136 9.472 3.584 3.7376 7.3216 7.68 11.1104 11.6736l5.3248 5.632v0.0512c2.048 2.2016 3.9936 4.4544 5.888 6.7584 0.1536 0.2048 0.3584 0.4096 0.512 0.6144 1.8944 2.3552 3.6864 4.7104 5.4272 7.2192 0.1024 0.1536 0.256 0.3072 0.4096 0.4608 14.6432 21.1968 19.968 43.9296 15.7696 67.7888-6.8096 38.7072-39.2192 77.9776-82.5856 100.0448-35.9424 18.2272-82.176 17.7664-117.76-1.2288-28.8768-15.4112-46.7968-40.8064-50.5856-71.5264-3.84-31.488-0.1536-54.6304 10.9056-68.7104 6.1952-7.8848 14.9504-13.4656 27.3408-17.2032 2.6624 18.5344 10.5984 28.5184 17.92 33.8432 10.8544 7.936 24.8832 9.1136 38.5536 3.2256 12.544-5.376 21.1456-16.64 23.6032-30.9248 2.5088-14.592 0.3072-44.9024-42.3936-84.1216-19.7632-18.176-189.4912-184.3712-64.5632-424.192 110.9504-212.9408 263.68-154.2656 270.336-151.6032 5.7856 2.3552 12.3392 1.9968 17.7664-1.0752 143.104-79.8208 276.0704 54.9376 292.5056 72.5504 84.5824 100.864 121.2928 202.1888 109.1584 301.2096z" fill="#7B6BF2" p-id="40607"></path><path d="M635.0336 639.8976c5.888-5.2736 8.192-13.5168 5.9392-21.0944s-8.704-13.2096-16.4864-14.3872c-11.2128-1.7408-14.2848-4.4544-25.8048-14.4896l-0.512-0.4096c-7.7824-6.8096-26.0096-22.7328-49.2544-20.7872-7.7824 0.6656-15.104 3.1744-21.9648 7.5264-13.3632-9.6256-26.2656-11.8272-35.584-11.5712-16.64 0.4096-32.1024 8.5504-42.4448 22.3744-5.9392 7.8848-20.992 15.4112-29.0816 18.3296-7.7312 2.7136-13.0048 9.8304-13.568 18.0224-0.5632 8.192 3.9424 15.9744 11.3152 19.6608 0.1536 0.0512 13.2608 6.8096 22.4256 21.248 18.8416 29.7472 50.2272 47.5136 83.968 47.5136 38.1952 0 53.3504-13.312 69.1712-30.72 13.5168-14.8992 24.1152-25.2928 41.8816-41.216z m-72.192 13.6704c-10.8032 11.8784-15.7184 17.3056-38.8608 17.3056-29.0816 0-45.1072-21.8112-49.3568-28.4672-3.3792-5.3248-7.0656-10.0352-10.752-14.08 6.5024-4.5568 12.9024-10.1376 17.8176-16.6912 2.7136-3.6352 6.7584-5.888 10.7008-5.9904h0.3072c5.5808 0 12.032 4.0448 18.2272 11.4688 3.8912 4.6592 9.6768 7.3728 15.7184 7.3728h0.1536c6.144-0.0512 11.9296-2.816 15.7696-7.5776 2.0992-2.6112 6.1952-7.0656 9.8304-7.3728 5.888-0.4096 15.2576 7.68 18.7392 10.8032l0.512 0.4096c4.3008 3.7888 8.3456 7.3216 12.5952 10.4448-7.2192 7.1168-13.8752 14.08-21.4016 22.3744z" fill="#7B6BF2" p-id="40608"></path></svg>