<?xml version="1.0" standalone="no"?><!DOCTYPE svg PUBLIC "-//W3C//DTD SVG 1.1//EN" "http://www.w3.org/Graphics/SVG/1.1/DTD/svg11.dtd"><svg t="1706012625840" class="icon" viewBox="0 0 1024 1024" version="1.1" xmlns="http://www.w3.org/2000/svg" p-id="26424" width="32" height="32" xmlns:xlink="http://www.w3.org/1999/xlink"><path d="M512 512m-512 0a512 512 0 1 0 1024 0 512 512 0 1 0-1024 0Z" fill="#FF914E" p-id="26425"></path><path d="M266.752 409.6a23.296 23.296 0 0 0 23.296-23.296 39.168 39.168 0 0 1 36.096-41.984 39.168 39.168 0 0 1 35.84 41.984v230.4a23.552 23.552 0 0 0 47.104 0v-230.4a41.984 41.984 0 1 1 83.712 0v230.4a23.552 23.552 0 1 0 46.848 0v-230.4a41.984 41.984 0 1 1 83.712 0v230.4a76.8 76.8 0 0 0 3.072 20.224A463.872 463.872 0 0 1 563.2 681.984a23.296 23.296 0 0 0 11.008 44.032 25.6 25.6 0 0 0 11.008-2.56 514.816 514.816 0 0 0 67.584-46.08 123.392 123.392 0 0 0 79.616 30.208h1.28a23.552 23.552 0 0 0 1.28-47.104 81.92 81.92 0 0 1-46.848-14.592 360.704 360.704 0 0 0 76.8-108.8c35.84-81.408 2.816-125.184-12.8-140.288a100.864 100.864 0 0 0-82.944-25.6 88.832 88.832 0 0 0-153.6-44.8 88.576 88.576 0 0 0-129.792 0 79.872 79.872 0 0 0-60.16-27.904 86.016 86.016 0 0 0-82.432 88.32 23.552 23.552 0 0 0 23.552 22.784z m452.608 20.736c18.688 17.664 19.456 48.64 2.304 87.04a293.888 293.888 0 0 1-51.2 76.8v-175.36a54.272 54.272 0 0 1 48.896 12.032z" fill="#FFFFFF" p-id="26426"></path></svg>