<?xml version="1.0" standalone="no"?><!DOCTYPE svg PUBLIC "-//W3C//DTD SVG 1.1//EN" "http://www.w3.org/Graphics/SVG/1.1/DTD/svg11.dtd"><svg t="1706012569490" class="icon" viewBox="0 0 1024 1024" version="1.1" xmlns="http://www.w3.org/2000/svg" p-id="21649" width="32" height="32" xmlns:xlink="http://www.w3.org/1999/xlink"><path d="M512 512m-512 0a512 512 0 1 0 1024 0 512 512 0 1 0-1024 0Z" fill="#FF914E" p-id="21650"></path><path d="M286.976 330.24a84.736 84.736 0 0 1 48.896 10.24 144.64 144.64 0 0 1 41.728 43.52c12.8 16.384 29.184 37.632 52.48 62.72a160.512 160.512 0 1 0 163.072 0c23.552-25.6 39.936-46.592 52.992-63.232a147.712 147.712 0 0 1 41.472-43.008 83.968 83.968 0 0 1 48.896-10.24 25.6 25.6 0 0 0 30.72-17.92 25.6 25.6 0 0 0-18.176-30.72 128 128 0 0 0-83.456 13.824 176.128 176.128 0 0 0-59.392 57.344 770.56 770.56 0 0 1-64.256 74.752 153.6 153.6 0 0 0-30.72-3.072 162.304 162.304 0 0 0-29.696 2.816 836.608 836.608 0 0 1-64-74.496A176.128 176.128 0 0 0 358.4 294.912a128 128 0 0 0-83.968-13.312 25.6 25.6 0 0 0-18.432 29.952 25.6 25.6 0 0 0 30.976 18.688z m334.08 254.208A109.824 109.824 0 1 1 512 474.624a110.08 110.08 0 0 1 109.056 109.824z" fill="#F2F2F2" p-id="21651"></path></svg>