<?xml version="1.0" standalone="no"?><!DOCTYPE svg PUBLIC "-//W3C//DTD SVG 1.1//EN" "http://www.w3.org/Graphics/SVG/1.1/DTD/svg11.dtd"><svg t="1706014250846" class="icon" viewBox="0 0 1024 1024" version="1.1" xmlns="http://www.w3.org/2000/svg" p-id="38255" width="32" height="32" xmlns:xlink="http://www.w3.org/1999/xlink"><path d="M985.6512 422.0416c-10.752-3.4816-22.3232 2.4576-25.7536 13.2608-12.9024 40.2944-29.5936 88.32-34.2528 96.512-3.84 5.2224-25.7536 27.5968-122.5216 42.5472a127.47776 127.47776 0 0 0-8.5504-52.3264c135.3216-57.8048 163.2256-182.528 142.7968-283.4944-0.1024-0.5632-0.256-1.1264-0.4096-1.6896-23.5008-80.384-71.7824-134.8608-139.6224-157.44-92.8256-30.9248-198.1952 4.5056-231.424 29.3888a20.48512 20.48512 0 0 0-7.0656 23.1936c2.9696 8.448 10.8544 13.824 20.0192 13.6704 81.8688-2.7136 124.8768 26.9824 136.704 53.248 4.9152 10.8544 4.4544 21.2992-1.1264 27.1872-3.84 4.0448-6.7584 4.7616-9.1136 4.5568-19.968-0.0512-54.7328-37.2224-77.8752-62.0032a20.44416 20.44416 0 0 0-22.0672-5.2224 20.5056 20.5056 0 0 0-13.3632 18.3296c-5.2224 118.8864 43.8272 148.992 79.6672 171.008 2.8672 1.792 5.7344 3.5328 8.4992 5.2736 13.6192 8.704 26.8288 13.2096 37.4272 16.8448 20.1728 6.912 26.9824 9.216 30.9248 30.72 1.0752 5.8368 3.9424 21.8112-14.8992 40.448-14.4384-11.2128-31.0784-21.8112-49.8688-31.6928-0.8192-31.6416-27.7504-57.1904-60.8768-57.1904-16.128 0-30.8224 6.0928-41.728 16.0256-25.2928-7.68-45.9264-12.4928-56.7808-14.848-8.448-1.8432-17.3056-1.536-25.5488 0.8192-10.2912 2.9184-29.5936 8.704-53.1968 17.0496a61.9008 61.9008 0 0 0-44.8512-19.0976c-33.5872 0-60.928 26.3168-60.928 58.624 0 2.2528 0.1536 4.5056 0.4096 6.7072-16.2816 9.0112-30.72 18.2272-43.4688 27.648-23.7568-20.224-20.48-38.144-19.3024-44.544 3.9424-21.504 10.752-23.808 30.9248-30.72 10.5984-3.6352 23.808-8.1408 37.4272-16.8448 2.7648-1.792 5.632-3.5328 8.4992-5.2736 35.84-22.016 84.8384-52.1216 79.6672-171.008-0.3584-8.2432-5.6832-15.36-13.4144-18.2272s-16.4864-0.7168-22.1184 5.2736c-22.9888 24.576-57.8048 61.7984-77.7728 61.8496h-0.0512c-2.3552 0-5.2736-0.5632-9.0624-4.5568-5.5808-5.888-6.0416-16.3328-1.1264-27.1872 11.8272-26.3168 54.784-56.064 136.704-53.248 9.0112 0.2048 17.0496-5.2224 20.0192-13.6704 2.9696-8.448 0.1024-17.8176-7.0656-23.1936-33.2288-24.8832-138.5984-60.3648-231.424-29.3888-67.84 22.6304-116.1216 77.056-139.6224 157.44-0.1536 0.5632-0.3072 1.1264-0.4096 1.6896-20.736 102.2464 8.0896 228.0448 146.6368 285.0816-3.9424 10.752-6.0928 21.7088-6.0928 32.8704 0 5.8368 0.3584 11.5712 0.9728 17.2032-93.3376-14.9504-114.688-36.8128-118.528-41.9328-4.6592-8.192-21.3504-56.2688-34.2528-96.512a20.51584 20.51584 0 0 0-25.7536-13.2608c-10.752 3.4304-16.6912 15.0016-13.2608 25.7536 11.264 35.1232 31.3856 95.7952 39.6288 107.4176 14.0288 19.8144 53.76 46.4384 163.072 61.5936 4.6592 11.52 10.5472 22.4768 17.4592 32.9216-31.232 12.0832-75.3664 32-89.2416 52.1728-18.944 27.4944-17.2544 99.9936-16.2816 121.5488a20.48 20.48 0 0 0 20.4288 19.5584h0.9216a20.48 20.48 0 0 0 19.5584-21.3504c-1.6896-37.7856 1.5872-85.5552 9.1136-96.512 6.7584-9.8304 45.824-28.3136 82.5856-41.7792a321.7408 321.7408 0 0 0 25.1392 23.5008c-22.9888 19.2-55.6032 50.1248-61.952 75.6224-8.7552 35.3792 18.432 105.8304 23.9616 119.6032a20.51584 20.51584 0 0 0 18.9952 12.8512 20.5056 20.5056 0 0 0 18.9952-28.1088c-11.3664-28.3136-26.3168-77.8752-22.2208-94.464 3.1232-12.6464 29.4912-39.0144 55.8592-60.1088 13.9776 9.4208 28.2624 18.0224 42.3424 25.7024-16.128 21.1456-37.888 55.1936-40.7552 88.0128-4.608 53.76 68.9664 105.0112 83.7632 114.7392 3.4816 2.304 7.3728 3.3792 11.2128 3.3792 6.656 0 13.2096-3.2256 17.1008-9.216a20.5312 20.5312 0 0 0-5.8368-28.3648c-27.4944-18.1248-67.328-55.1424-65.4848-77.0048 2.048-24.1152 22.7328-54.6304 37.2736-72.7552a699.904 699.904 0 0 0 71.1168 28.416c5.4272 1.8432 11.1104 2.7136 16.8448 2.7136 5.5808 0 11.1616-0.8704 16.4864-2.6112 18.2272-5.9904 48.128-16.64 81.6128-31.9488 14.5408 17.4592 37.7856 50.3296 39.9872 76.1344 1.8944 21.8112-37.9392 58.8288-65.4848 77.0048a20.46464 20.46464 0 0 0-5.8368 28.3648c3.9424 5.9904 10.4448 9.216 17.152 9.216 3.84 0 7.7824-1.0752 11.2128-3.3792 14.7968-9.728 88.3712-60.928 83.7632-114.7392-2.9696-34.5088-26.88-70.4-43.1616-91.1872a536.064 536.064 0 0 0 42.0352-24.7296c27.2896 21.4528 55.3984 49.2032 58.624 62.3104 4.096 16.5376-10.8032 66.1504-22.2208 94.464-4.1984 10.496 0.8704 22.4256 11.3664 26.624 2.5088 1.024 5.0688 1.4848 7.6288 1.4848 8.0896 0 15.7696-4.864 18.9952-12.8512 5.5296-13.7728 32.7168-84.224 23.9616-119.6032-6.5024-26.2656-40.96-58.3168-64.0512-77.3632 8.8576-7.168 17.2544-14.6944 25.0368-22.5792 37.376 13.5168 77.8752 32.5632 84.7872 42.5984 7.5264 10.9056 10.8032 58.7264 9.1136 96.512a20.41856 20.41856 0 0 0 19.5584 21.3504h0.9216c10.9056 0 19.968-8.5504 20.4288-19.5584 0.9728-21.5552 2.6624-94.0544-16.2816-121.5488-14.1312-20.5312-59.5456-40.7552-90.88-52.7872 6.8096-10.1888 12.4928-20.8384 16.8448-32 111.0016-15.104 151.2448-41.9328 165.3248-61.9008 8.192-11.6224 28.3648-72.2944 39.6288-107.4176 3.84-10.5984-2.0992-22.1696-12.9024-25.6z m-254.8224-85.8112c-9.4208-3.2256-19.1488-6.5536-28.5696-12.5952-2.9696-1.8944-6.0416-3.7888-9.1648-5.6832-24.8832-15.2576-50.432-30.976-58.1632-83.1488 22.528 20.736 46.2848 36.8128 70.2464 36.9152h0.1536c14.6432 0 28.0576-5.9904 38.8096-17.3568 17.2544-18.2272 20.5824-45.8752 8.7552-72.192-11.9808-26.624-40.96-53.9136-89.5488-67.9424 36.3008-7.4752 80.3328-9.472 121.0368 4.096 55.0912 18.3808 93.0816 61.8496 112.9984 129.28 8.4992 42.8544 22.6304 179.2512-122.88 238.592-3.1744-4.2496-6.656-8.3968-10.3424-12.4928 21.2992-21.8112 29.8496-47.5136 24.7296-75.3664-8.3456-45.1584-35.8912-54.528-58.0608-62.1056z m-107.8784 62.0032c11.008 0 19.968 7.936 19.968 17.664 0 1.8432-0.4096 3.6352-1.024 5.3248-0.256 0.6656-0.4608 1.3312-0.768 1.9456l-0.4608 0.768c-0.6144 1.0752-1.3312 2.048-2.1504 2.9696-0.3584 0.4096-0.7168 0.8704-1.1776 1.2288-0.3584 0.3584-0.8192 0.6656-1.2288 0.9728-0.4608 0.3584-0.9728 0.768-1.4848 1.0752-0.4096 0.256-0.8704 0.512-1.3312 0.768-0.5632 0.3072-1.1776 0.6144-1.792 0.8704-0.4608 0.2048-0.9216 0.4096-1.4336 0.5632-0.7168 0.256-1.4336 0.4096-2.2016 0.6144-0.4096 0.1024-0.8192 0.2048-1.28 0.3072-1.1776 0.2048-2.4064 0.3072-3.6864 0.3072-11.008 0-19.968-7.936-19.968-17.664 0-1.0752 0.1536-2.0992 0.3584-3.1232l0.1536-0.768c0.2048-0.8704 0.512-1.7408 0.9216-2.6112l0.6144-1.2288c3.328-5.888 10.0864-9.984 17.9712-9.984z m-222.1056 0c9.0112 0 16.5888 5.376 19.0464 12.6976 0.1536 0.512 0.4096 1.024 0.512 1.5872 0.256 1.1264 0.4096 2.2528 0.4096 3.4304 0 9.728-8.96 17.664-19.968 17.664-1.1776 0-2.3552-0.1536-3.4816-0.3072-0.4096-0.0512-0.8192-0.1536-1.2288-0.256-0.7168-0.1536-1.3824-0.3584-2.0992-0.5632-0.4608-0.1536-0.9216-0.256-1.3312-0.4608a23.5008 23.5008 0 0 1-2.56-1.2288c-0.5632-0.3072-1.0752-0.6656-1.5872-1.024l-1.024-0.7168c-0.512-0.4096-0.9728-0.8192-1.4336-1.28-0.256-0.256-0.4608-0.512-0.7168-0.768-0.8704-0.9216-1.6384-1.9456-2.2528-3.072-1.3824-2.4064-2.2528-5.12-2.2528-8.0384 0-9.728 8.96-17.664 19.968-17.664zM256.256 487.9872c-150.3232-58.2656-136.0896-196.864-127.488-240.384 19.9168-67.4304 57.9072-110.8992 112.9984-129.28 40.704-13.568 84.736-11.5712 121.0368-4.096-48.64 14.0288-77.568 41.3184-89.6 67.9424-11.8272 26.3168-8.4992 53.9648 8.7552 72.192 10.752 11.3664 24.1664 17.3568 38.8096 17.3568h0.1536c23.9616-0.0512 47.7184-16.1792 70.2464-36.9152-7.7312 52.1728-33.28 67.84-58.1632 83.1488-3.1232 1.8944-6.1952 3.7888-9.1648 5.6832-9.4208 6.0416-19.2 9.3696-28.5696 12.5952-22.1184 7.5776-49.7152 16.9472-58.0096 62.0544-5.3248 29.0304 4.7104 56.4224 28.416 78.9504-1.3312 1.3824-2.56 2.7648-3.7888 4.1472-0.4096 0.4608-0.8192 0.8704-1.2288 1.3312-1.536 1.7408-3.0208 3.4816-4.4032 5.2736z m259.7376 278.3232c-2.4064 0.8192-5.0688 0.768-7.4752 0-28.8256-9.6768-140.8512-50.688-200.448-119.3472a16.7424 16.7424 0 0 0-1.536-1.792c-21.8624-25.7536-36.2496-55.3472-36.2496-88.576 0-11.52 4.096-22.6816 10.8032-33.28 6.656-10.3936 16.4864-21.0432 29.1328-31.6416l0.3072-0.3072c14.7456-12.1856 31.8976-23.1424 48.7936-32.512 0.768 0.6656 1.536 1.28 2.3552 1.8944 0.2048 0.1536 0.4096 0.3072 0.6144 0.512 1.3312 1.0752 2.7136 2.048 4.1472 2.9696 0.1536 0.1024 0.3072 0.2048 0.512 0.3072 1.4336 0.9216 2.9184 1.792 4.4544 2.6112l0.6144 0.3072c1.4848 0.768 2.9696 1.4336 4.5056 2.0992 0.3072 0.1024 0.5632 0.256 0.8704 0.3584 1.4336 0.5632 2.9184 1.0752 4.4032 1.536 0.4096 0.1536 0.8192 0.3072 1.2288 0.4096 1.3824 0.4096 2.816 0.7168 4.2496 1.0752 0.512 0.1024 1.024 0.256 1.5872 0.3584 1.4336 0.256 2.8672 0.4608 4.352 0.6144 0.5632 0.0512 1.0752 0.1536 1.6384 0.2048 1.9968 0.2048 3.9936 0.3072 6.0416 0.3072 33.5872 0 60.928-26.3168 60.928-58.624 0-0.6144 0-1.2288-0.0512-1.792 21.4528-7.5264 38.8608-12.7488 48.3328-15.4112 1.8944-0.512 3.84-0.6144 5.7856-0.2048 9.1648 1.9456 25.8048 5.8368 46.4384 11.8784-0.2048 1.8432-0.256 3.6864-0.256 5.5296 0 32.3072 27.3408 58.624 60.928 58.624 2.2528 0 4.4544-0.1536 6.6048-0.3584 0.4608-0.0512 0.8704-0.1536 1.3312-0.2048 1.7408-0.2048 3.5328-0.512 5.2224-0.8704l1.1776-0.3072c1.792-0.4096 3.5328-0.8704 5.2224-1.4336l0.9216-0.3072c1.792-0.6144 3.5328-1.3312 5.2224-2.0992 0.256-0.1024 0.4608-0.2048 0.7168-0.3072 1.792-0.8192 3.4816-1.7408 5.1712-2.7136 0.1536-0.1024 0.3584-0.2048 0.512-0.3072 1.7408-1.024 3.4304-2.1504 5.0176-3.3792 0.1024-0.0512 0.2048-0.1536 0.256-0.2048 3.4816-2.6112 6.656-5.5296 9.472-8.7552 19.712 10.7008 36.3008 21.9648 49.7664 33.7408 0.256 0.256 0.4608 0.5632 0.768 0.8192 12.1344 10.752 21.8112 22.0672 28.672 33.6384 0.1536 0.3072 0.4096 0.5632 0.5632 0.8192 8.4992 14.6944 12.8 30.0032 12.8 45.8752-0.1024 86.7328-132.7616 160.9728-246.4256 198.2464z" fill="#7B6BF2" p-id="38256"></path></svg>