<?xml version="1.0" standalone="no"?><!DOCTYPE svg PUBLIC "-//W3C//DTD SVG 1.1//EN" "http://www.w3.org/Graphics/SVG/1.1/DTD/svg11.dtd"><svg t="1706012602823" class="icon" viewBox="0 0 1024 1024" version="1.1" xmlns="http://www.w3.org/2000/svg" p-id="24098" width="32" height="32" xmlns:xlink="http://www.w3.org/1999/xlink"><path d="M512 512m-512 0a512 512 0 1 0 1024 0 512 512 0 1 0-1024 0Z" fill="#FF914E" p-id="24099"></path><path d="M296.704 668.672h3.584a384 384 0 0 0 199.68 57.856 380.928 380.928 0 0 0 262.4-110.848 29.952 29.952 0 0 0-40.448-44.288c-107.52 103.68-215.04 108.288-289.024 91.392a108.8 108.8 0 0 0 38.4-83.2 110.08 110.08 0 1 0-174.592 89.088z m64.512-139.008a51.2 51.2 0 0 1 0 100.096 48.896 48.896 0 0 1-28.416-8.448 49.92 49.92 0 0 1 28.416-91.136z" fill="#FFFFFF" p-id="24100"></path><path d="M281.6 457.472a30.464 30.464 0 0 0 20.224-7.936c109.568-100.608 215.808-105.216 289.792-88.32a108.8 108.8 0 0 0-38.4 83.2 110.08 110.08 0 1 0 174.592-89.088h-3.072c-28.16-18.432-244.224-147.968-462.592 52.736a30.208 30.208 0 0 0 20.224 51.2z m381.696 36.864a51.2 51.2 0 0 1 0-100.096 48.896 48.896 0 0 1 27.648 8.448 49.92 49.92 0 0 1-28.416 91.136z" fill="#FFFFFF" p-id="24101"></path></svg>