<?xml version="1.0" standalone="no"?><!DOCTYPE svg PUBLIC "-//W3C//DTD SVG 1.1//EN" "http://www.w3.org/Graphics/SVG/1.1/DTD/svg11.dtd"><svg t="1706012670371" class="icon" viewBox="0 0 1024 1024" version="1.1" xmlns="http://www.w3.org/2000/svg" p-id="30003" width="32" height="32" xmlns:xlink="http://www.w3.org/1999/xlink"><path d="M512 512m-512 0a512 512 0 1 0 1024 0 512 512 0 1 0-1024 0Z" fill="#FF914E" p-id="30004"></path><path d="M710.4 460.8a100.096 100.096 0 0 0-88.32 53.504 346.88 346.88 0 0 1-17.664-115.712 104.448 104.448 0 0 0-195.328-51.2 104.448 104.448 0 0 0-195.328 51.2 21.248 21.248 0 1 0 42.496 0 61.696 61.696 0 1 1 123.392 0l8.192 196.096a21.248 21.248 0 0 0 42.496 0l8.192-197.12a61.696 61.696 0 0 1 123.136 0A343.296 343.296 0 0 0 614.4 595.2 175.872 175.872 0 0 1 550.4 665.6a148.736 148.736 0 0 1-96.256 19.456 21.504 21.504 0 0 0-24.32 18.176 21.76 21.76 0 0 0 18.176 24.064 185.088 185.088 0 0 0 25.6 1.792 192.256 192.256 0 0 0 98.048-26.88 217.856 217.856 0 0 0 69.888-69.376 98.56 98.56 0 0 0 68.096 27.136 99.84 99.84 0 0 0 0-199.68z m0 157.184a57.344 57.344 0 0 1-51.2-31.744 16.896 16.896 0 0 0-2.304-4.864 60.928 60.928 0 0 1-3.84-20.736 57.344 57.344 0 1 1 57.088 57.344z" fill="#F2F2F2" p-id="30005"></path></svg>