<?xml version="1.0" standalone="no"?><!DOCTYPE svg PUBLIC "-//W3C//DTD SVG 1.1//EN" "http://www.w3.org/Graphics/SVG/1.1/DTD/svg11.dtd"><svg t="1706014322315" class="icon" viewBox="0 0 1039 1024" version="1.1" xmlns="http://www.w3.org/2000/svg" p-id="44215" width="32.46875" height="32" xmlns:xlink="http://www.w3.org/1999/xlink"><path d="M1021.590124 1.548456a26.639409 26.639409 0 0 0-30.741921 9.798651c-14.374944 20.297206-49.693159 53.408032-124.95972 46.408995l-2.638098-0.215355c-116.076327-10.767748-272.962421-25.25037-336.815168 164.74655-4.414777-0.161516-8.829554-0.269194-13.29817-0.215355C449.176622 32.290378 292.344368 46.772999 176.321879 57.540747l-2.638098 0.215355c-75.374238 6.999036-110.638614-26.11179-125.013558-46.408995A26.5425 26.5425 0 0 0 17.98214 1.548456c-11.413813 4.037906-18.628205 14.805654-17.928301 26.919371C3.391841 85.213861 21.535497 128.44637 53.946419 156.980903c47.48577 41.832702 114.407326 43.124832 167.438487 39.625314 45.709092-3.01497 80.327403 32.464761 106.008482 108.000516-19.974173 14.96717-59.868681 33.433859-92.656474 2.422744a21.562416 21.562416 0 0 0-23.150659-4.199422 21.530113 21.530113 0 0 0-13.190492 19.489624c-0.753742 44.632317 16.959204 85.711277 48.616384 112.684487 23.689046 20.135689 53.569548 31.172631 84.849857 31.711018-5.922262 54.915517-9.529457 94.97154 18.143656 131.851079 20.943271 27.942307 20.943271 27.942307 24.227434 64.444974l0.699903 7.429746c3.068808 33.756891 18.789721 67.675298 47.754964 91.041312-1.399807 14.751815-0.215355 34.995182 9.906329 57.76897 4.845487 10.929265 13.190492 23.473691 22.881465 38.010152 34.510633 51.846708 60.837778 97.5558 33.703052 131.79724a21.465506 21.465506 0 0 0-1.29213 24.873498 21.578568 21.578568 0 0 0 18.197495 10.014006c1.615162 0 3.230325-0.161516 4.899326-0.538387 34.887505-8.12965 95.509928-58.307357 77.473949-137.611824-14.482622-63.798909-15.882429-75.75111-9.906329-85.442083l3.176486-5.060842c4.683971-7.483585 8.56036-13.890395 11.467652-20.51256 43.394026-22.719949 62.237585-64.60649 64.391135-102.132093 2.422743-42.640283 12.490588-56.799873 33.164665-82.211759 27.296242-33.541536 24.173595-84.957534 14.913332-131.474207 69.344299-8.12965 116.507037-49.262449 137.127275-120.060394a21.519345 21.519345 0 1 0-27.565436-26.434823c-18.520527 6.245294-67.782976 9.152586-105.200901-1.345968 25.950274-80.112048 61.483843-117.691489 108.215871-114.515004 53.031161 3.553357 120.006555 2.207388 167.438486-39.625314 32.410923-28.534533 50.50074-71.767043 53.892581-128.513076a26.768622 26.768622 0 0 0-17.98214-26.919371zM227.19949 153.319869c-2.853453 0-5.760745 0.107677-8.721876 0.269194-44.686156 2.961131-100.57077 2.368905-136.104339-28.965243-14.374944-12.652104-24.873499-29.988179-31.495664-51.79287 27.242403 18.574366 67.890653 33.218504 126.736398 27.780791l2.691937-0.269194c121.137169-11.252297 246.258405-22.719949 296.597628 150.156251 0.269194 1.076775 0.592226 2.099711 0.86142 3.176486-23.473691 25.734919-70.15188 45.870608-106.439192 46.247479-31.280309-97.340445-79.681338-146.602894-144.126312-146.602894z m289.167882 553.67762c-2.961131-1.453646-10.390877-7.914295-20.404883-25.465725h41.671186c-10.552393 17.659107-18.251333 24.065918-21.266303 25.465725z m26.219467 234.952269c-5.599229-39.948346-31.549503-78.927595-51.254482-108.538904-8.237327-12.329072-15.990106-24.012079-19.381947-31.603341-1.453646-3.284163-2.58426-6.460649-3.553357-9.475619 10.983103 3.930228 24.281273 6.40681 40.21754 6.406811 8.829554 0 17.228397-0.484549 25.088854-1.507485-4.791648 21.320142 1.238291 47.808803 12.652104 98.148026 4.253261 18.41285 1.776678 33.972246-3.768712 46.570512zM787.660791 360.329831c-21.427819 38.333184-57.230582 57.069066-108.592742 57.069066-2.853453 0-5.599229 0.646065-8.183488 1.72284-1.884356-3.553357-5.060842-6.40681-9.098748-7.752779-10.2832-3.445679-32.410923-5.437713-50.016191 8.883392-20.889432 17.013042-28.534533 50.662256-22.66611 100.086221a16.081632 16.081632 0 0 0 16.043945 14.213428c4.145583 0 8.183489-1.615162 11.252297-4.576293 27.080887-26.380983 39.194604-39.732991 47.05506-62.291424 5.9761 30.095857 11.14462 74.243625-6.191455 95.509928-24.550466 30.149695-39.679153 52.385096-42.8018 106.923741-1.022936 17.443752-10.2832 72.359269-85.334405 78.012336 17.55143-5.760745 34.24144-23.52753 50.716094-53.838741a37.627897 37.627897 0 0 0-0.699903-37.364087 37.568674 37.568674 0 0 0-32.5186-18.520527H487.186774c-13.298169 0-25.358047 6.783681-32.303245 18.143656a37.471764 37.471764 0 0 0-1.345969 36.987215c15.774751 30.634244 32.08789 48.562545 49.63932 54.484807-16.959204-1.507485-30.580405-5.868423-41.50967-11.898362-2.368905-2.476582-5.276197-4.253261-8.452682-5.383874-29.449792-21.266303-34.510633-55.077033-35.372054-64.283458l-0.646064-7.322069c-3.661034-40.971282-5.222358-49.800836-32.626278-86.41118-17.336075-23.204498-15.39788-48.993255-9.367941-105.200901 0.053839-0.646065 0.161516-1.399807 0.215355-2.045873 7.860456 23.850563 19.866496 37.256409 47.754964 64.444974 3.068808 2.961131 7.106714 4.576293 11.252297 4.576293 1.830517 0 3.607196-0.323032 5.383874-0.915258a16.167774 16.167774 0 0 0 10.660071-13.29817c5.814584-49.423965-1.776678-83.073178-22.66611-100.08622-17.605269-14.321105-39.679153-12.329072-50.016191-8.883393a16.130087 16.130087 0 0 0-10.875426 13.405847c-3.284163-1.938195-6.999036-2.961131-10.821587-2.961131-1.238291 0-2.530421 0.107677-3.822551 0.323033-28.696049 5.168519-56.153808-1.938195-77.258594-19.866496-12.329072-10.498555-21.481658-23.904401-27.080887-39.248443 34.725988 9.690974 71.174817-1.022936 97.98651-18.574366 1.830517 0.86142 3.822551 1.453646 5.868422 1.776679 56.961389 8.775715 135.296758-26.165628 167.600003-74.728174 0.161516-0.215355 0.269194-0.43071 0.43071-0.646065 0.161516 0.215355 0.269194 0.43071 0.43071 0.646065 31.118793 46.839705 104.877869 80.973468 161.30087 75.535755 32.841632 13.136653 74.02827 15.667074 106.11616 13.352008z m-150.479283 82.104081c-3.607196 16.205461-7.752779 25.734919-17.389913 37.471764 1.453646-21.589335 7.69894-30.688083 12.221394-34.456794 1.615162-1.399807 3.391841-2.368905 5.168519-3.01497z m-234.790752 0c1.776678 0.646065 3.553357 1.615162 5.168519 3.01497 4.522454 3.768712 10.767748 12.867459 12.221394 34.456794-9.637135-11.736846-13.782718-21.266303-17.389913-37.471764z m554.754394-317.756254c-35.53357 31.334148-91.418183 31.926374-136.104339 28.965243-68.752073-4.576293-120.168072 44.632317-152.794349 146.387539-36.287312-0.376871-82.965501-20.458722-106.439192-46.247479l0.807581-2.907292c50.231546-173.145393 175.460459-161.677741 296.651467-150.425444l2.691937 0.269193c58.791906 5.383874 99.440156-9.206425 126.736398-27.78079-6.676004 21.750852-17.174559 39.086926-31.549503 51.73903z" fill="#7B6BF2" p-id="44216"></path></svg>