<?xml version="1.0" standalone="no"?><!DOCTYPE svg PUBLIC "-//W3C//DTD SVG 1.1//EN" "http://www.w3.org/Graphics/SVG/1.1/DTD/svg11.dtd"><svg t="1706014486965" class="icon" viewBox="0 0 1024 1024" version="1.1" xmlns="http://www.w3.org/2000/svg" p-id="3134" width="32" height="32" xmlns:xlink="http://www.w3.org/1999/xlink"><path d="M827.8528 478.5664c-1.0752-2.4576-2.56-4.5568-4.4032-6.3488l9.8304-24.2688c8.448-20.7872 0.6656-44.3392-18.4832-56.064l-126.0032-76.9024c-5.12-39.7824-15.8208-77.1584-31.4368-105.0112C558.592 27.3408 259.2768 44.8 135.168 60.8256c-30.3616 3.8912-54.0672 27.8528-57.6 58.2144-8.192 69.5808-26.7776 307.6608 77.7728 448.512 48.4352 65.2288 115.6608 89.7536 176.128 96.7168 0.3584 0.6144 0.6656 1.28 1.0752 1.8944l93.5936 132.1472c8.8576 12.4928 22.9888 19.1488 37.376 19.1488 7.2704 0 14.592-1.8432 21.2992-5.4272 2.2528 3.6352 5.5808 6.6048 9.6768 8.2944 2.5088 1.024 5.12 1.4848 7.7312 1.4848 5.4272 0 10.752-2.1504 14.6944-6.1952l306.8928-314.7264a20.49024 20.49024 0 0 0 4.0448-22.3232z m-32.512-46.0288l-13.824 34.0992c-35.5328 0.4608-85.504 0.8192-100.2496-0.3584-0.6656-0.0512-1.28-0.1024-1.8432-0.2048 0.256-1.2288 0.6144-2.9184 1.28-5.2224 8.1408-28.8768 11.8272-62.1568 11.52-95.7952l101.2224 61.7984c1.9456 1.1776 2.7648 3.584 1.8944 5.6832z m-607.1296 110.592C112.2816 440.832 102.2464 259.4304 118.2208 123.8016a25.5488 25.5488 0 0 1 22.1696-22.3744c85.9136-11.0592 363.1104-34.3552 466.6368 105.6256h-81.9712c-10.9568 0-19.968 8.6016-20.48 19.5584l-5.4272 121.6H387.7888c-11.3152 0-20.48 9.1648-20.48 20.48v114.176H251.8528c-11.3152 0-20.48 9.1648-20.48 20.48v82.1248a191.54944 191.54944 0 0 1-43.1616-42.3424z m271.3088 231.5264l-76.6464-108.2368c46.7968-1.28 82.8416-10.5472 91.4944-12.9536 1.9968-0.5632 3.584-0.9216 4.8128-1.1264 0.2048 1.28 0.4608 2.9184 0.6656 5.0176 1.0752 10.6496 1.5872 61.8496 1.792 107.776L465.92 775.8336c-2.0992 1.4336-4.9664 0.8704-6.4-1.1776z m62.976-23.4496c-0.2048-38.1952-0.7168-85.7088-1.9456-97.9456-0.8704-8.6016-2.6624-26.5216-16.9984-36.3008-6.6048-4.5056-13.9264-6.0416-20.9408-6.0416-7.0656 0-13.824 1.536-19.3536 3.072-13.7728 3.84-107.2128 27.7504-190.976-6.1952V523.776h115.456c11.3152 0 20.48-9.1648 20.48-20.48V389.12h110.4384c10.9568 0 19.968-8.6016 20.48-19.5584l5.4272-121.6h85.504c8.8064 21.8112 15.616 49.7152 18.9952 79.7696 0 0.7168 0.1536 1.3824 0.2048 2.0992 4.1984 39.3728 2.56 82.2272-8.0384 119.808-2.2016 7.6288-7.3216 25.5488 3.1744 40.704 6.8096 9.8304 18.0736 15.4624 33.4848 16.6912 13.824 1.1264 50.6368 1.0752 81.8176 0.768l-237.2096 243.4048zM611.6864 738.7136a20.52096 20.52096 0 0 0-10.7008 26.9312c0.4096 1.024 43.008 100.8128 33.7408 181.9648a20.52096 20.52096 0 0 0 18.0224 22.6816c0.768 0.1024 1.5872 0.1536 2.3552 0.1536a20.48 20.48 0 0 0 20.3264-18.176c10.496-91.8528-34.9184-198.3488-36.864-202.8544-4.4032-10.4448-16.4864-15.2064-26.88-10.7008zM693.0944 659.6096a20.41856 20.41856 0 0 0-2.6112 28.8256c0.9216 1.1264 92.2112 112.4864 92.2112 261.4272 0 11.3152 9.1648 20.48 20.48 20.48s20.48-9.1648 20.48-20.48c0-163.6352-97.536-282.6752-101.6832-287.6416a20.57216 20.57216 0 0 0-28.8768-2.6112zM777.6256 592.7424a20.47488 20.47488 0 0 0-23.1936 33.7408c1.5872 1.0752 160.1024 112.64 164.5568 323.84a20.52608 20.52608 0 0 0 20.48 20.0704h0.4608a20.54144 20.54144 0 0 0 20.0704-20.8896c-4.9664-232.0384-175.104-351.7952-182.3744-356.7616z" fill="#7B6BF2" p-id="3135"></path></svg>