<?xml version="1.0" standalone="no"?><!DOCTYPE svg PUBLIC "-//W3C//DTD SVG 1.1//EN" "http://www.w3.org/Graphics/SVG/1.1/DTD/svg11.dtd"><svg t="1706012529218" class="icon" viewBox="0 0 1024 1024" version="1.1" xmlns="http://www.w3.org/2000/svg" p-id="18171" width="32" height="32" xmlns:xlink="http://www.w3.org/1999/xlink"><path d="M512 512m-512 0a512 512 0 1 0 1024 0 512 512 0 1 0-1024 0Z" fill="#FF914E" p-id="18172"></path><path d="M726.528 375.808l-57.6 57.6a3.072 3.072 0 0 1-4.864 0l-60.416-60.416a51.2 51.2 0 0 0-70.912 0l-59.648 59.648a3.072 3.072 0 0 1-4.864 0L409.6 375.04a51.2 51.2 0 0 0-70.656 0l-75.264 75.264a23.296 23.296 0 0 0 0 32.768 23.296 23.296 0 0 0 33.024 0l75.008-75.264a3.328 3.328 0 0 1 5.12 0L435.2 465.664a51.2 51.2 0 0 0 70.912 0l59.648-59.648a3.584 3.584 0 0 1 4.864 0l60.416 60.416a51.2 51.2 0 0 0 70.656 0L759.552 409.6a23.296 23.296 0 0 0-33.024-32.768zM726.528 551.424l-57.6 57.6a3.072 3.072 0 0 1-4.864 0l-60.416-60.416a51.2 51.2 0 0 0-70.912 0l-59.648 59.648a3.072 3.072 0 0 1-4.864 0L409.6 550.656a51.2 51.2 0 0 0-70.656 0l-75.264 75.264a23.296 23.296 0 0 0 0 32.768 23.296 23.296 0 0 0 33.024 0l75.008-75.008a3.072 3.072 0 0 1 5.12 0L435.2 641.28a51.2 51.2 0 0 0 70.912 0l59.648-59.648a3.584 3.584 0 0 1 4.864 0l60.416 60.416a51.2 51.2 0 0 0 70.656 0l57.856-57.856a23.296 23.296 0 0 0-33.024-32.768z" fill="#FFFFFF" p-id="18173"></path></svg>