<?xml version="1.0" standalone="no"?><!DOCTYPE svg PUBLIC "-//W3C//DTD SVG 1.1//EN" "http://www.w3.org/Graphics/SVG/1.1/DTD/svg11.dtd"><svg t="1706012517376" class="icon" viewBox="0 0 1024 1024" version="1.1" xmlns="http://www.w3.org/2000/svg" p-id="17074" width="32" height="32" xmlns:xlink="http://www.w3.org/1999/xlink"><path d="M512 512m-512 0a512 512 0 1 0 1024 0 512 512 0 1 0-1024 0Z" fill="#FF914E" p-id="17075"></path><path d="M704.768 294.4h-151.296a24.32 24.32 0 0 0 0 48.384h94.464l-158.72 158.464-66.56-66.048a24.32 24.32 0 0 0-34.304 34.304l66.816 66.56-153.6 153.6a24.064 24.064 0 0 0 0 34.048 23.808 23.808 0 0 0 34.048 0l153.6-153.6 58.624 58.368a23.808 23.808 0 0 0 34.048 0 24.064 24.064 0 0 0 0-34.048l-58.368-58.624 156.928-156.928v97.28a24.32 24.32 0 1 0 48.384 0v-157.696a24.064 24.064 0 0 0-24.064-24.064z" fill="#FFFFFF" p-id="17076"></path></svg>