<?xml version="1.0" standalone="no"?><!DOCTYPE svg PUBLIC "-//W3C//DTD SVG 1.1//EN" "http://www.w3.org/Graphics/SVG/1.1/DTD/svg11.dtd"><svg t="1706014129977" class="icon" viewBox="0 0 1024 1024" version="1.1" xmlns="http://www.w3.org/2000/svg" p-id="31127" width="32" height="32" xmlns:xlink="http://www.w3.org/1999/xlink"><path d="M898.304 87.7568l-132.1984 46.7456c-12.8 4.5568-22.1696 15.1552-25.0368 28.4672s1.3312 26.8288 11.1616 36.2496l29.1328 27.8016-30.3616 29.5936C522.24 28.5696 271.104 127.1808 214.8352 167.5264c-9.3696 6.7584-22.8352 14.1312-33.8432 11.008-12.032-3.4304-18.6368-18.4832-18.8416-18.944a20.48 20.48 0 0 0-34.7136-5.5296c-39.5264 47.2064-32.6144 109.568-3.584 140.288 11.776 12.4416 29.1328 21.5552 50.0736 21.0944l116.8896 387.1232-90.112-6.4512a38.6816 38.6816 0 0 0-35.3792 17.664l-69.9904 108.4416c-5.12 7.936-5.12 18.176 0.1024 26.0608a24.0128 24.0128 0 0 0 23.9104 10.4448l70.6048-11.9296-14.3872 69.9392c-1.8432 9.0624 1.7408 18.4832 9.216 24.0128a23.99744 23.99744 0 0 0 25.6512 1.7408l113.0496-62.1056c13.0048-7.1168 20.6848-20.736 20.1216-35.584l-3.7376-94.3104 385.2288 113.664c1.2288 18.176 9.5232 34.0992 24.576 46.336 19.456 15.7696 47.1552 22.7328 74.24 22.7328 23.7568 0 47.0528-5.3248 63.8976-14.6944 7.6288-4.2496 11.7248-12.8 10.24-21.4016a20.39296 20.39296 0 0 0-16.7936-16.6912c-6.6048-1.1264-21.8624-10.1376-27.3408-23.552-3.6352-8.9088-1.9456-18.0224 5.2224-27.8528 36.3008-49.92 133.888-301.056-79.9232-542.5664l31.9488-31.1296 26.9824 25.7024a38.7328 38.7328 0 0 0 26.7264 10.7008c2.9696 0 5.9904-0.3584 8.96-1.024 12.8-3.0208 23.1424-12.2368 27.5968-24.6272l46.3872-128.512c5.1712-14.2336 1.6896-29.7984-8.96-40.5504s-26.2656-14.336-40.5504-9.2672z m-156.0576 711.3216c-3.6864 8.96-6.9632 17.0496-9.728 24.5248L356.5568 712.704l296.3456-305.664c183.7568 161.7408 124.8768 305.3568 89.344 392.0384zM327.8336 683.52L213.1968 303.8208c4.608-2.56 9.3184-5.5296 14.08-9.0624 48.5376-36.1984 148.3776-110.592 394.0864 86.016L327.8336 683.52z m-104.7552 205.2096l7.5776-36.7616a38.83008 38.83008 0 0 0-44.032-46.1824c-0.0512 0-0.1536 0-0.2048 0.0512l-35.6352 5.9904 48.2816-74.8032 99.5328 7.1168 3.9936 100.9152-79.5136 43.6736z m649.2672-262.5536c-1.6384 96-34.8672 162.816-46.3872 178.688-15.5136 21.3504-19.0976 45.312-10.0352 67.4816 2.9696 7.3216 7.168 13.9776 12.0832 19.8656-20.2752 0.5632-40.96-4.096-52.5824-13.568-6.5024-5.2736-13.1584-13.6704-7.4752-32.1536 2.6112-8.448 7.0656-19.3024 12.1856-31.8464 35.328-86.1696 108.9024-265.472-115.456-451.4304-139.5712-115.712-239.872-154.3168-316.6208-154.3168-60.4672 0-106.3424 23.9104-145.2544 52.992-5.9392 4.4032-12.9024 8.6016-20.0192 10.8544-0.1024 0.0512-0.2048 0.0512-0.3072 0.0512-0.1536 0.0512-0.3072 0.1536-0.4608 0.2048-9.7792 2.9184-19.968 2.0992-28.416-6.8096-12.3392-13.056-16.64-38.0928-8.3968-61.8496a64.1024 64.1024 0 0 0 24.0128 13.4144c21.5552 6.4 44.9536 0.6656 69.5296-16.9472C290.304 163.84 526.5408 72.8576 739.84 303.9744c111.9744 121.2928 133.8368 242.176 132.5056 322.2016z m-8.3968-377.1392l-34.1504-32.5632c-0.8704-1.6896-1.9456-3.328-3.3792-4.7616-1.792-1.8432-3.8912-3.2256-6.144-4.2496l-37.2736-35.5328 124.672-44.0832-43.7248 121.1904z" fill="#7B6BF2" p-id="31128"></path></svg>