<?xml version="1.0" standalone="no"?><!DOCTYPE svg PUBLIC "-//W3C//DTD SVG 1.1//EN" "http://www.w3.org/Graphics/SVG/1.1/DTD/svg11.dtd"><svg t="1706012540794" class="icon" viewBox="0 0 1024 1024" version="1.1" xmlns="http://www.w3.org/2000/svg" p-id="19328" width="32" height="32" xmlns:xlink="http://www.w3.org/1999/xlink"><path d="M512 512m-512 0a512 512 0 1 0 1024 0 512 512 0 1 0-1024 0Z" fill="#FF914E" p-id="19329"></path><path d="M728.32 494.336h-109.824A218.88 218.88 0 0 1 693.248 332.8a28.416 28.416 0 0 0-33.28-45.824 275.2 275.2 0 0 0-96.768 207.36h-100.864a276.48 276.48 0 0 0-97.792-207.36A28.416 28.416 0 0 0 331.008 332.8a218.88 218.88 0 0 1 74.752 161.536h-110.08a28.416 28.416 0 0 0 0 56.576h107.264A244.224 244.224 0 0 1 329.728 691.2a28.416 28.416 0 0 0-3.84 39.936 28.928 28.928 0 0 0 22.016 10.24 28.416 28.416 0 0 0 17.92-6.4A302.848 302.848 0 0 0 460.8 550.912h104.448a303.36 303.36 0 0 0 93.952 185.088A28.416 28.416 0 1 0 694.528 691.2a244.224 244.224 0 0 1-72.96-141.312h106.752a28.416 28.416 0 0 0 0-56.576z" fill="#FFFFFF" p-id="19330"></path></svg>