<?xml version="1.0" standalone="no"?><!DOCTYPE svg PUBLIC "-//W3C//DTD SVG 1.1//EN" "http://www.w3.org/Graphics/SVG/1.1/DTD/svg11.dtd"><svg t="1706012614118" class="icon" viewBox="0 0 1024 1024" version="1.1" xmlns="http://www.w3.org/2000/svg" p-id="25230" width="32" height="32" xmlns:xlink="http://www.w3.org/1999/xlink"><path d="M512 512m-512 0a512 512 0 1 0 1024 0 512 512 0 1 0-1024 0Z" fill="#FF914E" p-id="25231"></path><path d="M294.912 570.368a96 96 0 1 0 191.744 0 97.024 97.024 0 0 0-4.096-27.392 92.16 92.16 0 0 0-14.08-28.416 365.824 365.824 0 0 1-12.288-120.32v-1.536a82.432 82.432 0 1 1 164.608 0 283.648 283.648 0 0 1-7.68 74.496 157.696 157.696 0 0 1-30.976 57.6 363.52 363.52 0 0 0-25.6 36.608 183.04 183.04 0 0 0-21.248 89.088A123.904 123.904 0 0 0 567.552 742.4a88.32 88.32 0 0 0 64.768 25.6c59.648 0 96.768-58.88 96.768-113.664a27.136 27.136 0 0 0-54.272 0c0 25.6-15.104 59.392-42.496 59.392a34.56 34.56 0 0 1-25.6-10.24 71.68 71.68 0 0 1-15.872-51.2 131.84 131.84 0 0 1 13.568-63.488 294.656 294.656 0 0 1 21.248-31.488 207.872 207.872 0 0 0 39.936-76.8 349.184 349.184 0 0 0 9.216-88.32 136.448 136.448 0 0 0-272.896 0 504.32 504.32 0 0 0 2.816 84.224 84.736 84.736 0 0 0-14.08-1.28 96 96 0 0 0-95.744 95.232z m136.192-9.728a42.24 42.24 0 0 1 1.28 9.728 41.728 41.728 0 1 1-41.728-41.472 40.96 40.96 0 0 1 30.464 13.568 94.976 94.976 0 0 0 9.984 18.176z" fill="#FFFFFF" p-id="25232"></path></svg>