<?xml version="1.0" standalone="no"?><!DOCTYPE svg PUBLIC "-//W3C//DTD SVG 1.1//EN" "http://www.w3.org/Graphics/SVG/1.1/DTD/svg11.dtd"><svg t="1706012580414" class="icon" viewBox="0 0 1024 1024" version="1.1" xmlns="http://www.w3.org/2000/svg" p-id="22817" width="32" height="32" xmlns:xlink="http://www.w3.org/1999/xlink"><path d="M512 512m-512 0a512 512 0 1 0 1024 0 512 512 0 1 0-1024 0Z" fill="#FF9800" p-id="22818"></path><path d="M311.296 733.184a25.6 25.6 0 0 0 41.472 27.136s41.472-61.184 159.232-61.184 157.44 58.624 159.232 61.44a25.6 25.6 0 0 0 20.736 11.008 24.064 24.064 0 0 0 13.568-4.096 25.6 25.6 0 0 0 7.168-34.304 198.144 198.144 0 0 0-107.52-70.656V361.472a198.144 198.144 0 0 0 107.52-70.656 25.6 25.6 0 0 0-41.472-27.136S629.76 324.864 512 324.864s-157.44-58.624-159.232-61.44a25.6 25.6 0 0 0-41.472 27.392 206.592 206.592 0 0 0 118.272 73.472v295.424a206.592 206.592 0 0 0-118.272 73.472z m167.68-360.448c10.496 0 21.504 1.792 33.024 1.792a380.672 380.672 0 0 0 43.52-2.816v281.6a380.672 380.672 0 0 0-43.52-2.816c-11.52 0-22.528 0-33.024 1.792z" fill="#F2F2F2" p-id="22819"></path></svg>