<?xml version="1.0" standalone="no"?><!DOCTYPE svg PUBLIC "-//W3C//DTD SVG 1.1//EN" "http://www.w3.org/Graphics/SVG/1.1/DTD/svg11.dtd"><svg t="1706014238317" class="icon" viewBox="0 0 1024 1024" version="1.1" xmlns="http://www.w3.org/2000/svg" p-id="36965" width="32" height="32" xmlns:xlink="http://www.w3.org/1999/xlink"><path d="M477.7472 359.0656c0.1024-0.512 0.1536-1.024 0.2048-1.536 7.4752-82.8928-21.0944-129.28-41.984-151.6032 0.3072-6.4512-1.6896-12.9024-5.6832-18.0736-19.5584-25.2928-70.5536-52.6336-155.0336-53.504h-1.6896c-101.9392 0-197.0688 95.488-226.9184 184.1152-77.5168 213.6064-1.28 387.3792 31.2832 461.568 1.792 4.0448 3.4304 7.7824 4.9152 11.264 3.9936 9.216 14.08 14.2336 23.7568 11.776a20.5312 20.5312 0 0 0 15.4624-21.5552c-0.7168-8.6528-0.8192-17.408-0.4096-26.4704 27.5968 46.1312 68.4032 90.7264 98.4064 109.7216 3.3792 2.0992 7.168 3.1744 10.9568 3.1744 4.4032 0 8.7552-1.4336 12.3904-4.1984a20.46464 20.46464 0 0 0 7.168-22.272c-3.2768-10.752-5.8368-21.4528-7.8336-32.1024 46.848 29.7984 98.816 50.9952 145.5104 68.2496 3.1744 1.1776 6.4512 1.7408 9.6256 1.7408 8.6528 0 16.8448-4.096 22.1696-11.5712 7.2704-10.1888 6.8608-23.552-1.0752-33.2288-43.6224-53.504-69.8368-114.6368-66.7648-155.7504 3.9424-52.48 53.76-77.1072 77.2608-80.8448 46.2848-7.3216 44.1856-44.3904 42.24-62.5152 2.9696-2.6624 5.6832-6.144 7.5264-10.5984 3.0208-7.2704 2.7648-14.2848 0.9216-21.0944 6.912-9.1136 7.7312-20.9408 6.1952-33.024 7.936-5.3248 11.8784-11.9296 13.8752-17.4592 7.8336-22.1184-9.2672-43.52-15.7184-51.5584-2.9184-3.7888-10.5984-19.6096-6.7584-42.6496z m-392.448-27.0848c25.6-75.9296 107.1616-156.672 188.2624-156.672h1.2288c59.6992 0.6144 96.2048 16.0768 113.5104 28.7744-10.1376 10.752-20.5312 27.9552-24.1664 54.5792l-0.1536 1.3824c-0.256 2.048-0.4608 4.096-0.6656 6.2464l-0.1536 2.048c-0.2048 2.6624-0.3072 5.376-0.3584 8.192-0.5632 33.9456-10.0864 77.6704-29.7472 98.048-1.3312 1.3824-2.6624 2.6112-4.0448 3.7376-0.768 0.6144-1.536 1.1776-2.304 1.6896-0.3072 0.2048-0.5632 0.4608-0.8704 0.6144-0.0512 0.0512-0.1024 0.0512-0.1024 0.0512-7.4752 4.864-15.7696 6.2976-25.7536 4.4032-7.2704-1.3824-13.6704-1.6384-19.2512-1.0752-4.3008 0.4608-8.0896 1.3824-11.52 2.6624 5.7856-58.7776-12.7488-108.2368-13.824-111.104a20.51072 20.51072 0 0 0-26.4704-11.776c-10.5472 4.0448-15.8208 15.872-11.776 26.4704 0.3072 0.8192 30.5152 81.408-5.12 149.504-12.6976 24.2688-30.3104 45.4144-48.896 67.84-37.3248 44.9536-75.8272 91.4432-71.8336 163.1744-1.3312 7.8848-2.6112 15.616-3.7888 23.1424C57.856 609.28 31.3856 480.512 85.2992 331.9808z m46.8992 339.1488c0-0.0512-0.0512-0.1536-0.0512-0.2048V670.72c-4.0448-56.9856 26.7264-94.0544 62.3616-136.96 18.2272-21.9136 36.9664-44.5952 51.4048-70.9632 5.12 17.6128 13.824 34.7648 23.4496 47.1552-37.3248 55.0912-84.3776 162.304-71.0144 280.4224-33.2288-37.7344-64.6144-89.088-66.1504-119.2448z m326.5024-232.7552c-5.4272 1.1776-10.1376 4.5568-13.056 9.2672s-3.7888 10.4448-2.4064 15.8208c1.5872 6.144 2.3552 10.3424 2.6624 13.2096a20.47488 20.47488 0 0 0-9.6256 27.1872c0.5632 1.2288 1.2288 2.6112 1.8944 4.0448-5.4272 3.9424-8.704 10.4448-8.3968 17.4592 0.2048 4.2496 0.6656 8.3456 1.0752 12.3392 0.5632 5.2224 1.6896 14.9504 0.3072 17.2032-0.3584 0.4096-2.6112 1.7408-7.9872 2.6112-40.2432 6.3488-106.1376 44.0832-111.7184 118.2208-3.584 47.4624 19.5584 102.0928 48.4864 146.944-42.1888-17.3056-85.76-38.656-122.6752-67.0208-1.8432-104.2944 45.4144-194.7136 71.7312-230.7072 0.1024-0.1024 0.1536-0.2048 0.256-0.3584 1.024-1.4336 2.048-2.7648 3.0208-3.9936 3.5328-4.5568 4.9664-10.3936 3.9936-16.128a20.62848 20.62848 0 0 0-9.216-13.824c-5.888-3.7376-19.6608-26.1632-23.8592-48.384-2.0992-11.1616-0.5632-16.4352-0.2048-17.1008 0 0 2.4064-1.1264 9.3184 0.2048 23.2448 4.352 44.8512-0.9216 62.5152-15.36 2.2016-1.792 4.3008-3.6864 6.2976-5.6832 30.2592-30.1056 41.9328-84.48 42.5984-127.1808 0.256-16.7936 3.8912-28.3648 8.192-36.1984 13.824 18.176 30.464 53.0432 25.2928 112.1792-5.376 33.7408 4.864 60.928 15.36 74.0352 4.0448 5.0688 6.2464 8.5504 7.424 10.8032-0.4096 0.2048-0.8192 0.3072-1.28 0.4096zM973.4144 318.9248c-30.0032-89.088-125.184-184.576-227.072-184.576h-1.6896c-84.48 0.8704-135.4752 28.2112-155.0336 53.504a27.50976 27.50976 0 0 0-5.6832 18.0736c-20.8896 22.3232-49.4592 68.7104-41.984 151.6032 0.0512 0.512 0.1024 1.024 0.2048 1.536 3.84 22.9888-3.84 38.8096-6.8096 42.5472-6.4512 8.0384-23.552 29.44-15.7184 51.5584 1.9456 5.5296 5.9392 12.1856 13.8752 17.4592-1.5872 12.032-0.768 23.9104 6.1952 33.024-1.792 6.8096-2.0992 13.824 0.9216 21.0944 1.8432 4.4544 4.608 7.936 7.5264 10.5984-1.9456 18.1248-4.096 55.1936 42.24 62.5152 23.5008 3.6864 73.3184 28.3648 77.2608 80.8448 3.072 41.1136-23.0912 102.2464-66.7648 155.7504-7.8848 9.6768-8.2944 23.04-1.024 33.2288 5.3248 7.424 13.568 11.5712 22.1696 11.5712 3.2256 0 6.4512-0.5632 9.6256-1.7408 46.6944-17.2032 98.6624-38.4512 145.5104-68.2496-1.9968 10.6496-4.5568 21.3504-7.8336 32.1024a20.49024 20.49024 0 0 0 19.5584 26.4704c3.7888 0 7.5776-1.0752 10.9568-3.1744 30.0032-18.944 70.8096-63.5904 98.4064-109.7216 0.4096 9.0624 0.3072 17.8688-0.4096 26.4704a20.44928 20.44928 0 0 0 15.4624 21.5552c9.7792 2.4576 19.8144-2.56 23.7568-11.776 1.4848-3.4816 3.1232-7.2192 4.9152-11.264 32.5632-74.1376 108.8-247.8592 31.4368-461.0048z m-313.4464 503.7056c28.8768-44.8512 52.0192-99.4816 48.4864-146.944-5.5808-74.1376-71.4752-111.872-111.7184-118.2208-5.3248-0.8704-7.6288-2.2016-7.936-2.56-1.3824-2.2528-0.3072-11.9808 0.256-17.2544 0.4608-3.9936 0.9216-8.0896 1.0752-12.3392 0.3072-6.9632-2.9696-13.4656-8.3968-17.4592 0.6656-1.4336 1.3312-2.816 1.8944-4.0448a20.51584 20.51584 0 0 0-9.6768-27.136c0.3584-2.8672 1.1264-7.1168 2.7136-13.2608 1.3824-5.376 0.512-11.1104-2.4064-15.8208s-7.6288-8.0896-13.056-9.2672c-0.4608-0.1024-0.9216-0.2048-1.28-0.3072 1.1776-2.304 3.3792-5.7344 7.424-10.8032 10.496-13.1072 20.736-40.3456 15.36-74.0352-5.1712-59.1872 11.52-94.0032 25.2928-112.1792 3.584 6.5024 6.656 15.6672 7.7312 28.2624 0.2048 2.5088 0.3584 5.12 0.4096 7.936 0.3584 21.0432 3.3792 44.9536 9.984 67.328 6.7584 23.04 17.3056 44.5952 32.6144 59.8528 1.9968 1.9968 4.096 3.8912 6.2976 5.6832 1.024 0.8192 2.0992 1.536 3.1744 2.304 14.7968 10.9056 32.1024 15.8208 50.7392 14.2336 2.8672-0.256 5.7344-0.6656 8.6528-1.1776 2.7136-0.512 4.7616-0.6656 6.1952-0.6656 1.9456 0 2.816 0.256 2.816 0.2048 0.7168 1.0752 2.2016 6.3488 0.1024 17.3568-4.1984 22.1696-17.9712 44.6464-23.8592 48.384a20.46464 20.46464 0 0 0-5.2224 29.952c0.9728 1.28 1.9968 2.6112 3.072 4.0448 0.0512 0.1024 0.1024 0.1536 0.2048 0.256 26.2656 35.9424 73.6256 126.4128 71.7824 230.7584-36.9664 28.2624-80.5376 49.6128-122.7264 66.9184z m161.536-32.2048c13.3632-118.0672-33.6896-225.3312-71.0144-280.4224 9.5744-12.3904 18.2784-29.5424 23.4496-47.1552 14.4384 26.368 33.2288 48.9984 51.4048 70.912 35.6352 42.9056 66.4064 79.9744 62.3616 136.96v0.2048c0 0.0512 0 0.1536-0.0512 0.2048-1.4848 30.1568-32.8704 81.5104-66.1504 119.296z m110.9504-96.512c-1.1776-7.5264-2.4576-15.2576-3.7888-23.1424 3.9936-71.7312-34.5088-118.2208-71.8336-163.1744-18.5856-22.3744-36.1984-43.52-48.896-67.84-35.4304-67.6352-5.4272-148.736-5.12-149.5552 4.0448-10.5472-1.28-22.3744-11.776-26.4192-10.5472-4.0448-22.4256 1.2288-26.4704 11.776-1.0752 2.8672-19.6096 52.3264-13.824 111.104-7.7824-2.8672-17.8176-4.0448-30.7712-1.5872-2.8672 0.5632-5.5808 0.8192-8.192 0.8192-4.7104 0-9.0624-0.9728-13.1072-2.816-2.6624-1.2288-5.2224-2.7648-7.7312-4.8128-8.3456-6.8096-15.104-17.7152-20.3264-30.5152 0-0.0512-0.0512-0.1024-0.0512-0.1536-0.512-1.28-0.9728-2.6112-1.4848-3.9424-0.3072-0.8704-0.6656-1.7408-1.024-2.6624 0-0.0512-0.0512-0.1536-0.0512-0.2048-7.0144-20.224-10.5472-43.9808-10.9056-64.3072-0.0512-2.8672-0.2048-5.632-0.3584-8.2944l-0.1536-1.7408c-0.2048-2.2528-0.4096-4.4544-0.6656-6.6048l-0.1536-1.1264c-3.6352-26.624-14.0288-43.8784-24.1664-54.6816 17.3056-12.6976 53.76-28.16 113.4592-28.7744h1.2288c81.1008 0 162.7136 80.7424 188.416 157.1328 53.8112 148.2752 27.3408 276.9408-2.2528 361.5232z" fill="#7B6BF2" p-id="36966"></path></svg>