<?xml version="1.0" standalone="no"?><!DOCTYPE svg PUBLIC "-//W3C//DTD SVG 1.1//EN" "http://www.w3.org/Graphics/SVG/1.1/DTD/svg11.dtd"><svg t="1706012649081" class="icon" viewBox="0 0 1024 1024" version="1.1" xmlns="http://www.w3.org/2000/svg" p-id="27643" width="32" height="32" xmlns:xlink="http://www.w3.org/1999/xlink"><path d="M512 512m-512 0a512 512 0 1 0 1024 0 512 512 0 1 0-1024 0Z" fill="#FF914E" p-id="27644"></path><path d="M768 630.272H256a25.6 25.6 0 1 0 0 51.2h512a25.6 25.6 0 1 0 0-51.2zM768 519.936h-96.768v-17.408a159.232 159.232 0 0 0-318.464 0v17.408H256a25.6 25.6 0 1 0 0 51.2h122.368a25.6 25.6 0 0 0 25.6-25.6v-43.008a108.8 108.8 0 0 1 217.6 0v42.496a25.6 25.6 0 0 0 25.6 25.6H768a25.6 25.6 0 1 0 0-51.2z" fill="#FFFFFF" p-id="27645"></path></svg>