<?xml version="1.0" standalone="no"?><!DOCTYPE svg PUBLIC "-//W3C//DTD SVG 1.1//EN" "http://www.w3.org/Graphics/SVG/1.1/DTD/svg11.dtd"><svg t="1706014605212" class="icon" viewBox="0 0 1024 1024" version="1.1" xmlns="http://www.w3.org/2000/svg" p-id="5780" width="32" height="32" xmlns:xlink="http://www.w3.org/1999/xlink"><path d="M981.6576 698.4192h-32.7168l-99.2256-291.9936c11.776-3.9936 20.2752-15.104 20.2752-28.2112v-17.0496c21.4528-14.336 39.5264-36.0448 54.1184-65.2288 3.7888-7.6288 2.5088-16.8448-3.2768-23.0912a20.54656 20.54656 0 0 0-22.7328-5.0688c-31.2832 12.7488-108.6464 11.3152-182.6816-31.8464-43.1104-25.1392-87.6544-40.8064-135.3728-47.5136 13.8752-15.104 22.3744-35.1232 22.3744-57.1904 0-46.6944-37.9904-84.736-84.736-84.736-46.6944 0-84.736 37.9904-84.736 84.736 0 21.1456 7.8336 40.4992 20.736 55.3472-37.5808 4.1984-85.6064 16.2816-146.9952 50.2272-122.9312 66.6624-163.84 40.6016-168.1408 37.376-5.4784-7.424-14.7456-9.472-23.4496-5.9904-8.8576 3.584-13.4144 13.6192-11.9296 23.04 5.2224 33.1776 22.6304 58.8288 50.3296 74.24 1.3312 0.7168 2.7136 1.3824 4.0448 2.048v12.288a29.8496 29.8496 0 0 0 16.0256 26.4192l-95.9488 292.1984h-27.136a20.50048 20.50048 0 0 0-20.1216 24.2688c8.0384 42.5984 51.8656 123.0848 160.1024 123.0848 172.3392 0 189.8496-123.0848 190.0544-124.3648 0.7168-5.8368-1.0752-11.7248-4.9664-16.128a20.46464 20.46464 0 0 0-15.36-6.912h-32.7168l-99.328-292.3008a29.7216 29.7216 0 0 0 15.7184-24.9344c19.6096-1.8432 36.3008-6.2464 45.9776-10.3424 4.8128-2.048 11.0592-4.864 18.4832-8.2944 34.9696-15.9744 96.8192-44.1856 158.8736-54.784v173.3632a33.1008 33.1008 0 0 0-21.0944 30.8224v234.5984c-21.4016 16.896-35.7888 40.96-40.7552 67.3792h-15.9744c-18.944 0-34.4064 15.4112-34.4064 34.4064v9.0624c-16.7424 2.304-29.696 16.6912-29.696 34.048v39.3216c0 18.944 15.4112 34.4064 34.3552 34.4064h312.1152c18.944 0 34.4064-15.4112 34.4064-34.4064v-39.3216c0-16.6912-11.9808-30.6688-27.8016-33.7408v-9.3696c0-18.944-15.4112-34.4064-34.4064-34.4064h-18.3808c-4.9664-26.4704-19.3024-50.4832-40.7552-67.3792V511.9488c0-13.2608-7.8848-24.7296-19.2-30.0032V308.3264c28.3136 5.5296 51.6096 15.5136 81.5104 28.3136 23.7056 10.1888 50.5344 21.7088 85.8624 33.4848 17.8688 5.9392 34.7136 9.6256 50.6368 11.1104 0.8704 8.8064 5.632 16.4864 12.4928 21.2992l-97.1264 295.8848h-27.136a20.50048 20.50048 0 0 0-20.1216 24.2688c8.0384 42.5984 51.8656 123.0848 160.1024 123.0848 172.3392 0 189.8496-123.0848 190.0544-124.3648 0.7168-5.8368-1.0752-11.7248-4.9664-16.128a20.39808 20.39808 0 0 0-15.2576-6.8608zM524.8 284.672v194.2016h-16.5888V215.3984c3.1232 0.3584 6.2464 0.5632 9.472 0.5632 2.4064 0 4.7616-0.1536 7.1168-0.3584V284.672z m-7.1168-197.1712c24.1152 0 43.776 19.6096 43.776 43.776 0 16.9984-9.728 31.6928-23.9104 38.9632-0.2048 0.1024-0.4096 0.1536-0.6144 0.2048a47.20128 47.20128 0 0 1-40.0384-0.7168h-0.0512a43.78624 43.78624 0 0 1-22.8864-38.4512c-0.0512-24.1664 19.6096-43.776 43.7248-43.776zM190.5152 804.864c-67.6352 0-98.1504-38.8096-111.1552-65.4848h252.3136c-13.7216 26.3168-49.5616 65.4848-141.1584 65.4848z m-69.7344-106.4448l80.3328-244.6336 83.1488 244.6336H120.7808z m170.5984-373.0944c-7.0144 3.2256-12.9024 5.888-17.4592 7.8336-6.656 2.816-17.5616 5.5296-30.3104 6.9632a20.45952 20.45952 0 0 0-20.1216-16.896h-45.4656c-3.7888 0-7.3216 1.1264-10.3424 2.9184-1.6384-1.1776-3.2256-2.3552-4.7104-3.6352 34.048 1.9456 86.1696-7.8336 163.328-49.7152 60.8768-33.6384 105.3696-43.5712 140.9024-46.336v39.8336c-69.7344 10.5472-137.8304 41.6768-175.8208 59.0336z m373.8624 572.1088v26.7776H366.2848v-26.4704c16.7424-2.304 29.696-16.6912 29.696-34.048v-8.7552H637.44v8.7552c0 16.7424 11.9808 30.6688 27.8016 33.7408z m-81.664-83.456H447.488c4.5568-15.104 14.1312-28.4672 27.4432-37.7856a28.32384 28.32384 0 0 0 12.1856-23.1936v-233.1648h56.832v233.1648c0 9.216 4.5568 17.8688 12.1856 23.1936 13.312 9.3184 22.8864 22.6816 27.4432 37.7856z m79.8208-514.9184c-32.4608-13.9264-61.0816-26.2656-97.6384-32.3072v-38.8096c45.6704 5.2736 88.064 19.5584 129.024 43.4176 61.5424 35.8912 122.2144 46.0288 166.8608 44.1344-2.3552 2.3552-4.864 4.5568-7.4752 6.656-1.4848-0.3584-3.0208-0.5632-4.608-0.5632h-45.4656c-10.5984 0-19.2 8.0384-20.2752 18.3808-11.3664-1.28-23.8592-4.0448-37.7344-8.704-33.7408-11.2128-59.7504-22.3744-82.688-32.2048z m159.1296 154.7264l83.1488 244.6336h-163.4304l80.2816-244.6336z m-10.5984 351.0784c-67.6352 0-98.1504-38.8096-111.1552-65.4848h252.2624c-13.7216 26.2656-49.664 65.4848-141.1072 65.4848z" fill="#7B6BF2" p-id="5781"></path></svg>