<?xml version="1.0" standalone="no"?><!DOCTYPE svg PUBLIC "-//W3C//DTD SVG 1.1//EN" "http://www.w3.org/Graphics/SVG/1.1/DTD/svg11.dtd"><svg t="1706012660286" class="icon" viewBox="0 0 1024 1024" version="1.1" xmlns="http://www.w3.org/2000/svg" p-id="28846" width="32" height="32" xmlns:xlink="http://www.w3.org/1999/xlink"><path d="M512 512m-512 0a512 512 0 1 0 1024 0 512 512 0 1 0-1024 0Z" fill="#FF914E" p-id="28847"></path><path d="M789.76 650.496l-66.56-51.2a23.04 23.04 0 0 0-37.12 18.432v23.552h-24.064a25.6 25.6 0 0 1-15.36-23.04v-197.888a87.552 87.552 0 0 0-152.064-59.136 87.296 87.296 0 0 0-128 0A78.848 78.848 0 0 0 307.2 332.8a85.248 85.248 0 0 0-81.92 87.552 23.296 23.296 0 1 0 46.336 0A38.912 38.912 0 0 1 307.2 379.136a38.912 38.912 0 0 1 35.584 41.216v226.816a23.296 23.296 0 0 0 46.336 0v-226.816a41.216 41.216 0 1 1 82.432 0v226.816a23.296 23.296 0 0 0 46.336 0v-226.816a41.472 41.472 0 0 1 82.688 0v198.656a70.4 70.4 0 0 0 52.992 68.864 19.2 19.2 0 0 0 5.376 0h27.136v30.72a23.296 23.296 0 0 0 12.8 20.992 25.6 25.6 0 0 0 10.496 2.304 23.04 23.04 0 0 0 13.824-4.608l66.56-51.2a23.552 23.552 0 0 0 9.216-18.432 23.296 23.296 0 0 0-9.216-17.152z" fill="#FFFFFF" p-id="28848"></path></svg>